<!-- FEL DRONE — GENERATED by scripts/brand-gen.mjs — do NOT hand-edit brand SVGs.
     Run `npm run brand:gen` after changing geometry. -->
<svg xmlns="http://www.w3.org/2000/svg" viewBox="0 0 160 160"><style>:root{--ink:#0e1f30}svg{background:#fbfaf8}</style><g fill="none" stroke="#b4722c" stroke-width=".35" stroke-dasharray="1.6 2.4" opacity=".5"><path d="M0 0V160"/><path d="M4 0V160"/><path d="M8 0V160"/><path d="M12 0V160"/><path d="M16 0V160"/><path d="M20 0V160"/><path d="M24 0V160"/><path d="M28 0V160"/><path d="M32 0V160"/><path d="M36 0V160"/><path d="M40 0V160"/><path d="M44 0V160"/><path d="M48 0V160"/><path d="M52 0V160"/><path d="M56 0V160"/><path d="M60 0V160"/><path d="M64 0V160"/><path d="M68 0V160"/><path d="M72 0V160"/><path d="M76 0V160"/><path d="M80 0V160"/><path d="M84 0V160"/><path d="M88 0V160"/><path d="M92 0V160"/><path d="M96 0V160"/><path d="M100 0V160"/><path d="M104 0V160"/><path d="M108 0V160"/><path d="M112 0V160"/><path d="M116 0V160"/><path d="M120 0V160"/><path d="M124 0V160"/><path d="M128 0V160"/><path d="M132 0V160"/><path d="M136 0V160"/><path d="M140 0V160"/><path d="M144 0V160"/><path d="M148 0V160"/><path d="M152 0V160"/><path d="M156 0V160"/><path d="M160 0V160"/><path d="M0 0H160"/><path d="M0 4H160"/><path d="M0 8H160"/><path d="M0 12H160"/><path d="M0 16H160"/><path d="M0 20H160"/><path d="M0 24H160"/><path d="M0 28H160"/><path d="M0 32H160"/><path d="M0 36H160"/><path d="M0 40H160"/><path d="M0 44H160"/><path d="M0 48H160"/><path d="M0 52H160"/><path d="M0 56H160"/><path d="M0 60H160"/><path d="M0 64H160"/><path d="M0 68H160"/><path d="M0 72H160"/><path d="M0 76H160"/><path d="M0 80H160"/><path d="M0 84H160"/><path d="M0 88H160"/><path d="M0 92H160"/><path d="M0 96H160"/><path d="M0 100H160"/><path d="M0 104H160"/><path d="M0 108H160"/><path d="M0 112H160"/><path d="M0 116H160"/><path d="M0 120H160"/><path d="M0 124H160"/><path d="M0 128H160"/><path d="M0 132H160"/><path d="M0 136H160"/><path d="M0 140H160"/><path d="M0 144H160"/><path d="M0 148H160"/><path d="M0 152H160"/><path d="M0 156H160"/><path d="M0 160H160"/></g><g fill="none" stroke="#b4722c" stroke-width=".6" opacity=".8"><path d="M12 0V160M40 0V160M0 4H160M0 32H160M0 60H160M0 88H160M0 116H160M0 144H160M118 0V160M148 0V160"/><circle cx="118" cy="34" r="30"/><circle cx="118" cy="114" r="30"/><circle cx="118" cy="44" r="12"/><circle cx="118" cy="104" r="12"/><circle cx="78" cy="74" r="14"/></g><g fill="#0e1f30" fill-rule="evenodd"><path d="M12 4H118A30 30 0 0 1 148 34V114A30 30 0 0 1 118 144H40L12 116ZM40 32H106A12 12 0 0 1 118 44V104A12 12 0 0 1 106 116H40ZM40 60H78A14 14 0 0 1 78 88H40Z"/></g><text x="4" y="156" font-family="Arial" font-size="7" font-weight="700" letter-spacing=".1em" fill="#b4722c" opacity=".85">FEL DRONE GEOMETRY v12 · C2 STADIUM-D · 2u GRID · MARK 160×160</text></svg>
